<?xml version="1.0" encoding="UTF-8" standalone="no"?>
<svg
   width="153.25999"
   height="153.26009"
   version="1.1"
   id="svg28"
   xmlns="http://www.w3.org/2000/svg"
   xmlns:svg="http://www.w3.org/2000/svg">
  <defs
     id="defs28" />
  <path
     d="m 67.102961,6.1897665 0.412,-0.03325 10.7455,0.013 5.17525,0.00275 c 1.01325,0.00175 2.065,-0.0585 3.0695,0.0745 3.929,0.52025 7.43575,2.90425 9.59225,6.1980005 0.847,1.29325 1.4455,2.7735 1.80625,4.27375 0.174,0.723 0.25375,1.44925 0.325,2.1885 0.0042,0.0445 0.03375,0.54025 0.05175,0.561 0.06,0.0695 0.1835,-0.0015 0.2755,-0.0023 l 0.99275,-0.008 21.952749,-0.0305 8.026,-0.0105 c 3.13125,-0.0038 6.1185,-0.08825 9.175,0.7325 3.085,0.82825 6.184,2.64925 8.45375,4.8905 2.91825,2.882 5.04,6.6615 5.6975,10.73475 0.31025,1.9215 0.289,3.88675 0.29225,5.82725 l -0.0308,59.409253 -0.0157,16.528 c -0.006,3.10925 0.2675,6.57575 -0.29125,9.63775 -0.764,4.18625 -2.7665,8.1555 -5.78825,11.1745 -2.996,2.993 -6.90625,5.04875 -11.044,5.93925 -2.4565,0.52875 -4.98475,0.38975 -7.483,0.39425 l -8.46825,0.029 -33.353499,0.0417 -48.90625,-0.084 -11.7995,-0.0152 c -2.97775,-10e-4 -6.08575,0.2175 -9.013,-0.39775 -3.99925,-0.84075 -7.8939998,-3.00775 -10.7904998,-5.86825 -4.08625,-4.0355 -6.08724996,-9.37225 -6.11974996,-15.071 l -0.01325,-59.367503 0.002,-16.8115 c 0.0025,-3.65275 -0.2505,-7.46875 0.41275,-11.06925 0.74299996,-4.035 2.71049996,-7.79375 5.60299996,-10.6965 2.796,-2.806 6.0997498,-4.653 9.9712498,-5.52625 2.25175,-0.50775 4.58075,-0.446 6.87275,-0.44875 l 7.54775,-0.0042 24.76325,0.014 c 0.098,-3.026 0.8835,-5.7495 2.76275,-8.17 2.303,-2.9667505 5.4735,-4.5590005 9.1385,-5.0495005 z"
     id="path2"
     style="stroke-width:0.25" />
  <path
     fill="#9874dc"
     d="m 67.363461,9.0635165 11.24225,-0.04475 c 2.40325,5e-4 5.076,-0.22825 7.4395,0.07525 l 0.21975,0.031 c 1.8195,0.24475 3.7985,1.0930005 5.1875,2.3007505 2.528,2.198 3.65075,4.6905 3.88825,7.99925 l -9.26325,-0.0075 -28.02025,0.01475 -0.05725,-0.13625 c -0.0555,-0.27025 0.0625,-0.78275 0.09425,-1.065 0.2275,-2.026 0.97775,-3.7505 2.24375,-5.3495 1.75625,-2.21775 4.239,-3.4905005 7.0255,-3.8180005 z"
     id="path3"
     style="stroke-width:0.25" />
  <path
     fill="#87a8e2"
     d="m 21.796961,22.330517 22.2915,0.04975 52.9105,-0.03425 26.096249,-0.03 7.47275,0.014 c 1.5365,0.004 3.157,-0.07875 4.68075,0.13475 3.3935,0.4755 6.66325,1.868 9.20375,4.1835 3.451,3.14525 5.6525,7.40125 5.79425,12.11425 l 0.0197,20.98025 0.008,38.89525 -0.004,18.189753 -0.001,5.404 c -0.002,1.4415 0.0397,2.82975 -0.2,4.255 -0.62775,3.73275 -2.35875,7.012 -4.96925,9.748 -3.67975,3.8565 -8.13825,5.31975 -13.3465,5.45775 l -78.014999,-0.0335 -22.25825,-0.035 -7.29675,0.002 c -1.57125,-0.001 -3.16775,0.0545 -4.7305,-0.12425 -4.7565,-0.54375 -9.426,-2.979 -12.3989998,-6.769 -1.978,-2.52175 -3.37225,-5.6285 -3.77075,-8.82475 -0.21475,-1.721 -0.10725,-3.52925 -0.1045,-5.26375 l 0.003,-8.42475 -0.062,-27.499253 0.0315,-31.255 -0.00925,-9.69675 c -0.00425,-2.0875 -0.1175,-4.238 0.1175,-6.3125 0.4305,-3.80225 2.25825,-7.2975 4.91425,-10.02075 2.6687498,-2.7365 6.3684998,-4.496 10.1547498,-4.979 1.131,-0.14425 2.328,-0.106 3.469,-0.12575 z"
     id="path4"
     style="stroke-width:0.25" />
  <path
     fill="#303f56"
     d="m 121.32821,76.715017 c 8.56725,1.70025 16.7255,5.83875 23.477,11.33675 0.7775,0.63325 2.37975,1.652 2.864,2.49675 0.14525,0.25325 0.1815,0.51 0.21525,0.794 -0.0882,0.259 -0.2125,0.4615 -0.35075,0.69525 -0.32225,0.1865 -0.52025,0.358 -0.91275,0.3375 -0.45925,-0.02375 -0.96825,-0.3435 -1.3735,-0.55 l -2.82375,-1.409 c -5.4115,-2.55875 -11.12125,-4.451 -16.998,-5.576 -1.37025,-0.26225 -2.758,-0.56775 -4.14475,-0.72 l 0.0738,-0.78175 c 2.92025,0.4835 5.82525,0.97375 8.694,1.714 4.09375,1.0565 8.22725,2.58475 12.079,4.327 l 3.26625,1.5725 c 0.245,0.12525 0.8815,0.54125 1.121,0.56675 0.1065,0.0115 0.20825,-0.05075 0.3125,-0.07625 l 0.4125,-0.40725 c -0.591,-0.40175 -1.13,-0.93125 -1.68875,-1.38375 l -3.6945,-2.86525 c -6.087,-4.4455 -13.088,-7.78075 -20.4805,-9.33425 z"
     id="path5"
     style="stroke-width:0.25" />
  <path
     fill="#303f56"
     d="m 109.97971,50.878017 0.18975,-0.15 c 0.729,-0.59525 1.36525,-1.5025 1.97325,-2.225 3.41475,-4.0565 5.7355,-8.51475 7.52125,-13.4845 0.75275,-2.09475 1.4635,-4.246 1.85425,-6.44125 0.168,-0.94275 0.312,-2.2585 1.61875,-2.16575 0.314,0.02225 0.739,0.23325 0.92625,0.49725 0.48725,0.68575 0.34325,1.91625 0.33625,2.72225 -0.0425,4.7545 -0.84925,9.1715 -2.27175,13.697 -1.079,3.43225 -2.6375,6.57675 -4.57075,9.60425 -0.863,1.3515 -1.787,2.77825 -2.8525,3.98025 l -0.44,-0.692 c 1.30175,-1.84875 2.68175,-3.653 3.8255,-5.60675 3.17175,-5.418 5.0785,-12.073 5.43775,-18.34125 0.068,-1.1855 0.42775,-4.28075 -0.32525,-5.12225 -0.54875,0.221 -0.6125,0.3865 -0.74875,0.93775 l -0.8755,3.634 c -2.17975,7.41525 -5.512,14.26025 -11.08775,19.717 z"
     id="path6"
     style="stroke-width:0.25" />
  <path
     fill="#303f56"
     d="m 115.81421,58.862517 c 3.1975,-0.25025 6.40025,-0.42025 9.57575,-0.89125 5.141,-0.7625 10.14,-2.035 15.09525,-3.58425 l 3.29725,-1.20575 c 0.7865,-0.32925 2.4845,-1.30875 3.34325,-1.23225 0.10725,0.0098 0.329,0.089 0.42025,0.158 0.34275,0.259 0.5125,0.608 0.47925,1.0365 -0.0727,0.93325 -2.4625,2.51075 -3.22075,3.0625 -5.84625,4.2545 -13.332,7.3215 -20.3185,9.05925 -1.7785,0.4425 -3.605,0.6605 -5.3955,1.04475 l -0.2405,-0.72575 5.8525,-1.19225 c 6.83675,-1.70975 13.388,-4.6125 19.24475,-8.52275 0.78975,-0.52725 3.26325,-2.10725 3.435,-2.97575 l -0.16125,-0.1875 c -0.77875,0.028 -1.56225,0.52825 -2.27025,0.834 l -3.265,1.29225 -3.7595,1.1795 c -7.17875,2.03525 -14.30275,3.186 -21.75575,3.519 z"
     id="path7"
     style="stroke-width:0.25" />
  <path
     fill="#303f56"
     d="m 31.755961,84.926517 -5.6785,0.719 c -4.056,0.64825 -8.07725,1.89 -11.863,3.464 l -4.2702498,2.02725 c -0.74675,0.39675 -1.56575,1.049 -2.36675,1.291 -0.37675,0.114 -0.728,0.06675 -1.0625,-0.14175 -0.3395,-0.2115 -0.556,-0.49775 -0.636,-0.8925 -0.1125,-0.5545 0.1705,-1.03725 0.50525,-1.453 0.8525,-1.05875 2.0365,-1.98075 3.08625,-2.842 6.1974998,-5.085 14.2872498,-8.6785 22.2669998,-9.6185 l -0.056,0.879 c -0.577,-0.23625 -1.902,0.31275 -2.5225,0.47675 -3.10825,0.82125 -6.0405,1.64825 -9.0135,2.902 -4.14975,1.75025 -8.17825,4.30925 -11.5054998,7.34325 -0.57275,0.52225 -1.45325,1.21725 -1.7375,1.95475 -0.096,0.24925 -0.06575,0.21825 0.0095,0.44625 0.7635,0.086 2.854,-1.3325 3.6319998,-1.73225 l 3.346,-1.5555 c 5.446,-2.306 11.6795,-3.90925 17.59625,-4.11325 0.23725,-0.29425 0.16675,-0.751 0.17725,-1.12875 0.08475,0.67175 0.117,1.2965 0.0925,1.97425 z"
     id="path8"
     style="stroke-width:0.25" />
  <path
     fill="#303f56"
     d="m 33.957211,66.319267 c -8.389,-0.87825 -16.85625,-4.30175 -23.9295,-8.831 -1.1642498,-0.74575 -2.6382498,-1.56875 -3.6069998,-2.55 -0.3195,-0.32375 -0.54625,-0.6985 -0.52275,-1.16975 0.0185,-0.37375 0.26375,-0.77075 0.554,-0.9955 0.22125,-0.171 0.4665,-0.253 0.74375,-0.2755 0.8495,-0.06875 2.2645,0.87375 3.0957498,1.2085 1.944,0.78275 3.94625,1.42975 5.9735,1.958 5.195,1.3535 10.26925,2.18625 15.6015,2.71075 l 5.49775,0.417 c -0.15725,0.26925 -0.31325,0.60775 -0.504,0.85025 -0.833,-0.374 -2.3745,-0.18575 -3.315,-0.23375 l -4.3375,-0.34425 c -4.9655,-0.484 -10.1225,-1.53625 -14.895,-2.983 l -4.5464998,-1.625 c -0.6685,-0.26425 -1.8515,-0.948 -2.50125,-0.9835 -0.13475,-0.0073 -0.25975,0.07225 -0.38975,0.1085 l -0.10675,0.25 c 0.36775,0.812 1.63025,1.4935 2.364,1.98375 3.8629998,2.58175 8.0634998,4.7715 12.4104998,6.41475 2.57175,0.972 5.20975,1.7055 7.878,2.35875 1.56575,0.3835 3.17425,0.81275 4.779,0.98425 z"
     id="path9"
     style="stroke-width:0.25" />
  <path
     fill="#303f56"
     d="m 38.415961,57.015017 c -1.3115,-1.36675 -2.407,-2.9935 -3.403,-4.598 -3.99325,-6.433 -6.28075,-14.273 -6.4775,-21.838 -0.0355,-1.364 -0.36325,-4.45675 0.667,-5.47325 0.2735,-0.27 0.5845,-0.35675 0.9635,-0.3475 1.244,0.03025 1.414,1.60025 1.62025,2.53 0.487,2.195 0.95325,4.38325 1.6245,6.532 1.41175,4.518 3.46975,8.79 6.22675,12.64025 1.05275,1.47025 2.21025,2.9715 3.50975,4.23325 l 0.1525,0.147 -0.63625,0.69675 c -4.40125,-4.701 -7.584,-10.16525 -9.7115,-16.2295 -0.4475,-1.27525 -0.854,-2.60225 -1.17775,-3.9145 -0.2475,-1.00375 -0.91375,-5.21475 -1.50925,-5.7295 -0.46075,0.025 -0.431,0.017 -0.7475,0.3545 -0.8065,9.27125 2.00825,19.61575 7.2095,27.28375 0.6605,0.9735 1.3205,2.00775 2.074,2.91175 l 0.0995,0.114 z"
     id="path10"
     style="stroke-width:0.25" />
  <path
     fill="#87a8e2"
     d="m 31.663461,82.952267 c -0.0105,0.37775 0.06,0.8345 -0.17725,1.12875 -5.91675,0.204 -12.15025,1.80725 -17.59625,4.11325 l -3.346,1.5555 c -0.7779998,0.39975 -2.8684998,1.81825 -3.6319998,1.73225 -0.07525,-0.228 -0.1055,-0.197 -0.0095,-0.44625 0.28425,-0.7375 1.16475,-1.4325 1.7375,-1.95475 3.3272498,-3.034 7.3557498,-5.593 11.5054998,-7.34325 2.973,-1.25375 5.90525,-2.08075 9.0135,-2.902 0.6205,-0.164 1.9455,-0.713 2.5225,-0.47675 z"
     id="path11"
     style="stroke-width:0.25" />
  <path
     fill="#303f56"
     d="m 117.04321,99.914017 0.12075,0.098 c 2.0615,1.64675 4.45125,3.05575 6.78725,4.2695 4.40975,2.29175 8.85475,3.9425 13.73925,4.93175 l 3.4135,0.544 3.03575,0.24825 c 0.41775,0.0307 1.02225,0.0228 1.3965,0.209 0.3755,0.187 0.57,0.49 0.60025,0.905 0.0175,0.236 -0.067,0.4105 -0.15325,0.625 -1.59125,1.4935 -9.40275,1.94775 -11.734,1.87725 -6.457,-0.1955 -12.25575,-2.485 -17.89175,-5.482 4.49075,7.7495 7.4575,16.0875 7.56,25.1135 0.015,1.32175 0.18675,3.00875 -0.0998,4.3 -0.081,0.36525 -0.1705,0.43125 -0.44025,0.66625 -0.397,-0.1995 -0.55375,-0.481 -0.74825,-0.88325 -0.656,-1.3565 -1.07875,-2.89925 -1.6,-4.31975 -1.25975,-3.4325 -2.518,-6.9885 -4.102,-10.287 -1.4145,-2.9455 -3.01575,-5.81025 -4.8675,-8.504 -0.77225,-1.1235 -1.5685,-2.335 -2.51125,-3.31925 l 0.53175,-0.5305 c 1.419,1.39775 2.54125,3.14125 3.5985,4.82175 1.55075,2.4645 2.97975,5.012 4.179,7.6675 2.03825,4.51425 3.60025,9.27325 5.36525,13.90075 l 0.011,-4.3255 c -0.4015,-7.85225 -2.803,-16.10725 -6.92125,-22.82525 -0.8035,-1.31025 -1.585,-2.655 -2.73625,-3.6885 0.10225,-0.20125 0.26325,-0.3975 0.39075,-0.58575 5.506,4.608 13.2565,7.3475 20.43975,7.443 3.06125,0.0408 5.95525,-0.29775 8.947,-0.942 0.55375,-0.11925 1.4795,-0.17325 1.89125,-0.57325 -0.0452,-0.0712 -0.071,-0.15975 -0.13575,-0.214 -0.25625,-0.21425 -4.2395,-0.503 -4.8315,-0.598 -7.0055,-1.12425 -13.4715,-3.42 -19.5825,-7.05575 -1.38775,-0.8255 -2.6875,-1.789 -4.02225,-2.69625 z"
     id="path12"
     style="stroke-width:0.25" />
  <path
     fill="#87a8e2"
     d="m 121.37621,77.452017 c 7.3925,1.5535 14.3935,4.88875 20.4805,9.33425 l 3.6945,2.86525 c 0.55875,0.4525 1.09775,0.982 1.68875,1.38375 l -0.4125,0.40725 c -0.10425,0.0255 -0.206,0.08775 -0.3125,0.07625 -0.2395,-0.0255 -0.876,-0.4415 -1.121,-0.56675 l -3.26625,-1.5725 c -3.85175,-1.74225 -7.98525,-3.2705 -12.079,-4.327 -2.86875,-0.74025 -5.77375,-1.2305 -8.694,-1.714 z"
     id="path13"
     style="stroke-width:0.25" />
  <path
     fill="#87a8e2"
     d="m 110.49046,51.439017 c 5.57575,-5.45675 8.908,-12.30175 11.08775,-19.717 l 0.8755,-3.634 c 0.13625,-0.55125 0.2,-0.71675 0.74875,-0.93775 0.753,0.8415 0.39325,3.93675 0.32525,5.12225 -0.35925,6.26825 -2.266,12.92325 -5.43775,18.34125 -1.14375,1.95375 -2.52375,3.758 -3.8255,5.60675 -1.15075,-1.6355 -2.361,-3.35975 -3.774,-4.7815 z"
     id="path14"
     style="stroke-width:0.25" />
  <path
     fill="#87a8e2"
     d="m 113.57646,105.92652 c 1.15125,1.0335 1.93275,2.37825 2.73625,3.6885 4.11825,6.718 6.51975,14.973 6.92125,22.82525 l -0.011,4.3255 c -1.765,-4.6275 -3.327,-9.3865 -5.36525,-13.90075 -1.19925,-2.6555 -2.62825,-5.203 -4.179,-7.6675 -1.05725,-1.6805 -2.1795,-3.424 -3.5985,-4.82175 1.323,-1.2515 2.41675,-2.983 3.49625,-4.44925 z"
     id="path15"
     style="stroke-width:0.25" />
  <path
     fill="#87a8e2"
     d="m 34.199961,65.572517 c -1.60475,-0.1715 -3.21325,-0.60075 -4.779,-0.98425 -2.66825,-0.65325 -5.30625,-1.38675 -7.878,-2.35875 -4.347,-1.64325 -8.5475,-3.833 -12.4104998,-6.41475 -0.73375,-0.49025 -1.99625,-1.17175 -2.364,-1.98375 l 0.10675,-0.25 c 0.13,-0.03625 0.255,-0.11575 0.38975,-0.1085 0.64975,0.0355 1.83275,0.71925 2.50125,0.9835 l 4.5464998,1.625 c 4.7725,1.44675 9.9295,2.499 14.895,2.983 l 4.3375,0.34425 c 0.9405,0.048 2.482,-0.14025 3.315,0.23375 z"
     id="path16"
     style="stroke-width:0.25" />
  <path
     fill="#87a8e2"
     d="m 38.900461,56.328017 -0.0995,-0.114 c -0.7535,-0.904 -1.4135,-1.93825 -2.074,-2.91175 -5.20125,-7.668 -8.016,-18.0125 -7.2095,-27.28375 0.3165,-0.3375 0.28675,-0.3295 0.7475,-0.3545 0.5955,0.51475 1.26175,4.72575 1.50925,5.7295 0.32375,1.31225 0.73025,2.63925 1.17775,3.9145 2.1275,6.06425 5.31025,11.5285 9.7115,16.2295 z"
     id="path17"
     style="stroke-width:0.25" />
  <path
     fill="#87a8e2"
     d="m 116.17046,59.530767 c 7.453,-0.333 14.577,-1.48375 21.75575,-3.519 l 3.7595,-1.1795 3.265,-1.29225 c 0.708,-0.30575 1.4915,-0.806 2.27025,-0.834 l 0.16125,0.1875 c -0.17175,0.8685 -2.64525,2.4485 -3.435,2.97575 -5.85675,3.91025 -12.408,6.813 -19.24475,8.52275 l -5.8525,1.19225 z"
     id="path18"
     style="stroke-width:0.25" />
  <path
     fill="#87a8e2"
     d="m 116.67321,100.70452 c 1.33475,0.90725 2.6345,1.87075 4.02225,2.69625 6.111,3.63575 12.577,5.9315 19.5825,7.05575 0.592,0.095 4.57525,0.38375 4.8315,0.598 0.0647,0.0543 0.0905,0.14275 0.13575,0.214 -0.41175,0.4 -1.3375,0.454 -1.89125,0.57325 -2.99175,0.64425 -5.88575,0.98275 -8.947,0.942 -7.18325,-0.0955 -14.93375,-2.835 -20.43975,-7.443 z"
     id="path19"
     style="stroke-width:0.25" />
  <path
     fill="#303f56"
     d="m 44.335211,111.51602 c -1.14975,1.07 -2.1985,2.364 -3.186,3.5865 -4.012,4.968 -6.85275,10.7315 -8.50825,16.896 l -0.8215,3.47875 c -0.152,0.81325 -0.178,2.15075 -0.497,2.86975 -0.12,0.27025 -0.52975,0.6015 -0.80675,0.70525 -0.2675,0.1 -0.61975,0.0948 -0.87575,-0.0452 -0.27025,-0.148 -0.44325,-0.32575 -0.5225,-0.626 -0.385,-1.4595 -0.2655,-3.5605 -0.2615,-5.08525 0.01725,-6.647 1.46375,-13.19775 4.406,-19.17175 0.8565,-1.73875 1.90125,-3.389 2.864,-5.07075 -2.8155,1.29275 -5.62475,2.49325 -8.61,3.3465 -3.8325,1.09525 -8.04875,1.6165 -12.0275,1.645 -1.848,0.0132 -7.5617498,0.0787 -8.6942498,-1.1785 -0.281,-0.31175 -0.3575,-0.7485 -0.28875,-1.16025 0.1905,-1.1445 2.66475,-1.16375 3.5719998,-1.30725 6.53675,-1.0345 13.407,-2.9365 19.26725,-6.073 2.3655,-1.266 4.534,-2.77325 6.80075,-4.19325 l 0.41375,0.8795 2.9235,4.49075 0.51025,0.73 3.6355,4.4975 z"
     id="path20"
     style="stroke-width:0.25" />
  <path
     fill="#87a8e2"
     d="m 43.628461,110.73027 c -1.16525,1.47175 -2.52225,2.78225 -3.676,4.26975 -3.94175,5.08175 -6.7075,10.95775 -8.375,17.1535 l -1.3635,6.24725 h -0.0595 c -0.54825,-1.7025 -0.406,-4.242 -0.344,-6.0205 0.25075,-7.19925 1.99225,-14.103 5.6935,-20.3215 1.25625,-2.1105 2.68675,-4.14325 4.489,-5.826 z"
     id="path21"
     style="stroke-width:0.25" />
  <path
     fill="#87a8e2"
     d="m 39.482711,105.50277 -1.362,1.19375 c -1.44675,1.18875 -3.09725,1.93075 -4.80475,2.67625 -7.44175,3.249 -15.687,4.27675 -23.7379998,3.403 -0.75875,-0.0822 -1.77975,-0.1515 -2.273,-0.75725 0.16125,-0.236 0.05825,-0.183 0.275,-0.22875 l 6.9614998,-1.3095 c 5.88325,-1.30825 11.73375,-3.2265 16.981,-6.2265 1.73875,-0.99425 3.3605,-2.151 5.03675,-3.24175 z"
     id="path22"
     style="stroke-width:0.25" />
  <path
     d="m 43.299711,50.840767 c 1.9835,-2.016 4.117,-4.00925 6.40275,-5.67925 7.49525,-5.47675 16.88525,-8.6685 26.1875,-8.7305 12.864,-0.08575 24.645499,4.98125 33.676499,14.02175 l 0.41325,0.42525 0.51075,0.561 c 1.413,1.42175 2.62325,3.146 3.774,4.7815 l 0.44,0.692 1.10975,1.95 0.35625,0.66825 2.6795,6.0535 0.2405,0.72575 c 1.12025,3.37125 1.923,6.86 2.23775,10.405 l 0.048,0.737 -0.0215,5.8865 -0.0738,0.78175 c -0.23075,5.35275 -1.88025,10.99875 -4.23775,15.79375 l -0.37,0.790503 -2.706,4.63625 c -0.1275,0.18825 -0.2885,0.3845 -0.39075,0.58575 -1.0795,1.46625 -2.17325,3.19775 -3.49625,4.44925 l -0.53175,0.5305 c -1.92325,1.96025 -3.8275,3.8045 -6.02975,5.45175 -7.374499,5.5155 -16.675999,8.71025 -25.887749,8.7895 -10.24575,0.0885 -20.1165,-3.21275 -28.30575,-9.35275 -1.751,-1.31275 -3.3665,-2.81475 -4.99,-4.27875 l -0.70675,-0.78575 -3.6355,-4.4975 -0.51025,-0.73 -2.9235,-4.49075 -0.41375,-0.8795 c -0.9305,-2.057503 -1.881,-4.098503 -2.56825,-6.254003 -0.93175,-2.92225 -1.41225,-5.9215 -1.82125,-8.952 0.0245,-0.67775 -0.0077,-1.3025 -0.0925,-1.97425 l 0.018,-4.59325 0.056,-0.879 c 0.133,-3.70225 1.036,-7.6575 2.21975,-11.16075 l 0.24275,-0.74675 2.66025,-5.9305 c 0.19075,-0.2425 0.34675,-0.581 0.504,-0.85025 0.2865,-0.615 0.69675,-1.198 1.05175,-1.77675 l 0.4845,-0.687 3.763,-4.7905 z"
     id="path23"
     style="stroke-width:0.25" />
  <path
     fill="#ecf1f3"
     d="m 74.210711,39.446017 0.2715,-0.0225 c 11.05275,-0.5875 22.3545,3.474 30.613249,10.8045 8.01775,7.11675 12.6765,17.159 13.30725,27.808 0.664,11.21225 -3.21375,22.068503 -10.665,30.452753 -7.3905,8.31575 -17.771999,12.9075 -28.781749,13.5595 l -0.3185,0.0302 c -10.40175,0.684 -21.4355,-3.34475 -29.31425,-10.09975 -8.3555,-7.16325 -13.7775,-17.104253 -14.586,-28.151003 -0.814,-11.1245 2.63725,-21.655 9.9355,-30.082 5.331,-6.1555 12.95475,-10.93325 20.8385,-12.9915 2.8425,-0.74225 5.7755,-1.0965 8.6995,-1.30825 z"
     id="path24"
     style="stroke-width:0.25" />
  <path
     d="m 77.988461,50.447267 c 1.341,-0.09975 2.85375,0.065 4.18825,0.2195 6.08,0.70425 11.788,3.1815 16.43375,7.16725 6.092499,5.22675 10.082499,12.84575 10.622249,20.88375 0.5585,8.32175 -2.20675,16.45075 -7.75975,22.679253 -5.796999,6.50225 -13.421999,9.84075 -22.049749,10.33325 -7.34775,0.3195 -14.86475,-2.36275 -20.494,-7.06275 -6.12975,-5.118253 -9.951,-12.487253 -10.676,-20.432003 -0.74475,-8.16025 1.74575,-16.43175 7.0405,-22.70925 4.09275,-4.85275 9.69725,-8.42775 15.8465,-10.02975 2.2695,-0.59125 4.518,-0.85575 6.84825,-1.04925 z"
     id="path25"
     style="stroke-width:0.25" />
  <path
     fill="#a5a9ba"
     d="m 77.105211,51.571017 c 1.21325,-0.13325 2.519,-0.0395 3.736,0.0425 5.92975,0.39975 11.616,2.71675 16.26675,6.38325 6.252499,4.92975 10.060499,11.959 10.982999,19.8385 0.906,7.73825 -1.48225,15.67125 -6.32975,21.74575 -3.731499,4.675753 -9.115499,8.286003 -14.861999,9.953503 -1.9965,0.5795 -4.02425,0.86375 -6.085,1.09675 -1.78725,0.0708 -3.63625,0.1295 -5.417,-0.0555 -5.5895,-0.5805 -11.31675,-2.90425 -15.59025,-6.57125 -5.928,-5.086753 -9.994,-12.173503 -10.5255,-20.052503 -0.5535,-8.2075 1.81975,-16.16475 7.30175,-22.3865 5.2035,-5.9055 12.69875,-9.4895 20.522,-9.9945 z"
     id="path26"
     style="stroke-width:0.25" />
  <path
     d="m 77.320961,64.818017 c 3.54,-0.469 7.851,0.90775 10.69675,2.978 3.64725,2.65325 5.94525,6.49675 6.62775,10.937 0.65525,4.26325 -0.64525,8.77525 -3.20975,12.197 -2.88725,3.8525 -6.9425,5.76275 -11.5975,6.44875 -4.431,0.18525 -8.345,-0.94 -11.82475,-3.7275 -3.2795,-2.6275 -5.34875,-6.62175 -5.77275,-10.79525 -0.444,-4.3715 0.70325,-8.724 3.51175,-12.13825 3.0225,-3.67425 6.9335,-5.4285 11.5685,-5.89975 z"
     id="path27"
     style="stroke-width:0.25" />
  <path
     fill="#ecf1f3"
     d="m 82.239461,70.667017 c 1.4085,-0.13175 2.78575,-0.0675 4.0835,0.54175 1.5085,0.708 2.5595,1.92625 3.1015,3.487 0.5445,1.56725 0.434,3.38475 -0.325,4.86425 -0.8645,1.685 -2.2475,2.52875 -3.98875,3.0805 -1.51975,0.27975 -2.86275,0.196 -4.27125,-0.51875 -1.47825,-0.75 -2.64,-2.1215 -3.102,-3.7165 -0.48625,-1.6785 -0.27025,-3.394 0.58725,-4.9135 0.89375,-1.58325 2.22075,-2.334 3.91475,-2.82475 z"
     id="path28"
     style="stroke-width:0.25" />
  <rect
     style="fill:none;fill-rule:evenodd;stroke:none;stroke-width:1.42545;stroke-linecap:round;stroke-linejoin:round;stroke-opacity:1;paint-order:markers fill stroke"
     id="rect29"
     width="153.25999"
     height="153.2601"
     x="0"
     y="0"
     ry="0.26912674" />
</svg>
